<?xml version="1.0" encoding="utf-8"?>
<!-- Generator: Adobe Illustrator 23.1.0, SVG Export Plug-In . SVG Version: 6.00 Build 0)  -->
<svg version="1.1" id="Layer_1" xmlns="http://www.w3.org/2000/svg" xmlns:xlink="http://www.w3.org/1999/xlink" x="0px" y="0px"
	 viewBox="0 0 406.61 406.61" style="enable-background:new 0 0 406.61 406.61;" xml:space="preserve">
<style type="text/css">
	.st0{fill:url(#SVGID_1_);}
</style>
<radialGradient id="SVGID_1_" cx="225.4636" cy="161.1643" r="390.993" gradientUnits="userSpaceOnUse">
	<stop  offset="0" style="stop-color:#01A0C6"/>
	<stop  offset="1" style="stop-color:#2E58A6"/>
</radialGradient>
<path class="st0" d="M203.31,0C91.02,0,0,91.02,0,203.31s91.02,203.31,203.31,203.31s203.31-91.02,203.31-203.31S315.59,0,203.31,0z
	 M261.43,325.28c-17.84,0-32.6-15.57-35.11-35.76H179.1c-2.5,20.19-17.27,35.76-35.11,35.76c-19.59,0-35.52-18.75-35.52-41.81
	c0-23.05,15.93-41.81,35.52-41.81c17.65,0,32.29,15.24,35.02,35.12h47.39c2.73-19.88,17.37-35.12,35.02-35.12
	c19.59,0,35.52,18.75,35.52,41.81C296.95,306.52,281.02,325.28,261.43,325.28z M94.87,201.33l0.53-29.57
	c17.31,6.75,34.63,13.49,51.95,20.21c17.39,6.74,34.77,13.47,52.17,20.17l104.12-40.39l0.53,29.57
	c-34.85,13-69.71,25.99-104.56,38.99c0,0.02-0.06,0.04-0.08,0.03c-0.03,0.01-0.08-0.01-0.08-0.03
	C164.58,227.32,129.72,214.33,94.87,201.33z M324.12,150.88c-2.32,0.97-4.24,1.64-5.4,2.02c-2.31,12.41-3.51,22.94-4.18,30.71
	c-1.03,11.96-1.87,21.75-0.7,34.55c1.02,11.12,3.16,20.1,4.88,26.1c-2.47,0.04-5.29,0.25-8.37,0.77c-3.45,0.58-6.49,1.42-9.07,2.3
	c3.21-10.67,4.77-19.91,5.58-26.87c1.06-9.14,1.09-16.61,1.1-20.73c0.01-5.69-0.22-10.27-0.4-13.05
	c-0.46-7.08-1.46-16.51-3.77-27.58c-18.39,7.43-34.09,13.65-46.39,18.49c-2.9,1.14-13.38,5.25-27.25,10.62
	c-11.48,4.44-21.6,8.32-29.99,11.52c-22.09-9.12-44.19-18.23-66.28-27.35c-13.61-5.62-27.22-11.23-40.84-16.85
	c-5.52-2.28-11.05-4.56-16.57-6.84c-7.51-3.1-15.02-6.2-22.52-9.29c-6.17-2.55-12.35-5.09-18.52-7.64
	c21.87-7.52,43.59-14.63,65.11-21.92c33.45-11.33,58.04-20.77,63.93-22.96c14.6-5.43,26.99-10.18,36.39-13.82
	c5.21,1.86,10.44,3.7,15.65,5.56c7.09,2.52,14.17,5.04,21.28,7.55c1.01,0.36,2.02,0.71,3.04,1.07c5.99,2.12,11.97,4.22,17.95,6.32
	c6.8,2.39,13.6,4.78,20.39,7.16c7.42,2.6,14.85,5.2,22.26,7.78c22.86,7.96,45.68,15.85,68.45,23.66l0,0l0,0l0,0
	C354.82,138.35,326.77,149.77,324.12,150.88z"/>
</svg>
