<svg id="Layer_1" data-name="Layer 1" xmlns="http://www.w3.org/2000/svg" viewBox="0 0 1707 705.07"><defs><style>.cls-1{fill:#262626;}.cls-2{fill:#40b1d9;}.cls-3{fill:#fff;}</style></defs><title>Original vector</title><path class="cls-1" d="M755.48,754.55q2.1,2.63,5.31,6.89t6.63,9.46q3.42,5.19,6.77,10.83a110.86,110.86,0,0,1,5.71,10.9H766q-2.62-5-5.71-10.11T754,772.74q-3.15-4.66-6.23-8.74t-5.58-7.09c-1.14.09-2.3.13-3.48.13h-15v35.59H711V703a72.59,72.59,0,0,1,12-1.77q6.63-.46,12.14-.46,19.17,0,29.22,7.22t10,21.53a25.19,25.19,0,0,1-4.79,15.5Q764.79,751.41,755.48,754.55Zm-19.3-42.67q-8.14,0-12.48.39v34.27h9.06a97.59,97.59,0,0,0,11.82-.65,26.82,26.82,0,0,0,8.86-2.5A13.22,13.22,0,0,0,759,738.2a17.39,17.39,0,0,0,2-8.86,16.87,16.87,0,0,0-2-8.53,14.56,14.56,0,0,0-5.32-5.39,23.17,23.17,0,0,0-7.87-2.75A55.86,55.86,0,0,0,736.18,711.88Z" transform="translate(-61 -89.26)"/><path class="cls-1" d="M796.18,758.62a43.6,43.6,0,0,1,2.62-15.82,33.06,33.06,0,0,1,7-11.23,28.4,28.4,0,0,1,10-6.69,31.14,31.14,0,0,1,11.56-2.23q13.79,0,21.13,8.6t7.36,26.19v2a20.13,20.13,0,0,1-.13,2.3H808.91q.8,10.63,6.17,16.15t16.81,5.52a44.93,44.93,0,0,0,10.83-1.12,37.91,37.91,0,0,0,6.63-2.17l1.71,10.25a36.51,36.51,0,0,1-7.81,2.49,55.88,55.88,0,0,1-12.67,1.31,40.25,40.25,0,0,1-15.43-2.69,28.76,28.76,0,0,1-10.7-7.42,30.32,30.32,0,0,1-6.24-11.22A47.73,47.73,0,0,1,796.18,758.62Zm46.87-6.69q.13-8.28-4.13-13.59T827.16,733a16.11,16.11,0,0,0-7.41,1.64,17.3,17.3,0,0,0-5.45,4.27,19.52,19.52,0,0,0-3.48,6,29.12,29.12,0,0,0-1.64,7Z" transform="translate(-61 -89.26)"/><path class="cls-1" d="M896.49,783.83q7.49,0,11.09-2a6.65,6.65,0,0,0,3.61-6.3,8.37,8.37,0,0,0-3.54-7.09q-3.54-2.62-11.69-5.91-3.93-1.57-7.55-3.22a26.36,26.36,0,0,1-6.23-3.87,16.1,16.1,0,0,1-5.78-13.13A17.39,17.39,0,0,1,883.1,728q6.69-5.31,18.25-5.31a53.13,53.13,0,0,1,5.77.32c1.93.22,3.72.48,5.39.79s3.13.64,4.4,1,2.25.65,3,.92l-2.23,10.5a31.37,31.37,0,0,0-6.17-2.17,40.07,40.07,0,0,0-10.11-1.11,18.74,18.74,0,0,0-8.93,2,6.75,6.75,0,0,0-3.81,6.37,8.69,8.69,0,0,0,.85,3.94,9,9,0,0,0,2.63,3.08,21.18,21.18,0,0,0,4.4,2.56c1.75.79,3.85,1.63,6.3,2.5q4.86,1.85,8.67,3.61a27.23,27.23,0,0,1,6.5,4.14,15.74,15.74,0,0,1,4.13,5.71,20.75,20.75,0,0,1,1.45,8.2q0,9.47-7,14.31t-20,4.86q-9.06,0-14.18-1.51a73.24,73.24,0,0,1-7-2.29l2.23-10.51c1.4.53,3.63,1.31,6.7,2.36A38.6,38.6,0,0,0,896.49,783.83Z" transform="translate(-61 -89.26)"/><path class="cls-1" d="M957.8,724.35h25.87v10.24H957.8V766.1a38.13,38.13,0,0,0,.79,8.47,12.78,12.78,0,0,0,2.37,5.26,8.55,8.55,0,0,0,3.93,2.69,17.68,17.68,0,0,0,5.52.78,26,26,0,0,0,8.86-1.24c2.23-.83,3.79-1.42,4.66-1.77l2.37,10.11a46.12,46.12,0,0,1-6.44,2.29,36.5,36.5,0,0,1-10.5,1.38,31.89,31.89,0,0,1-11.49-1.77,16.77,16.77,0,0,1-7.29-5.32,21.18,21.18,0,0,1-3.87-8.73,57.13,57.13,0,0,1-1.12-12V705.31l12.21-2.1Z" transform="translate(-61 -89.26)"/><path class="cls-1" d="M1001.26,758.62a43.59,43.59,0,0,1,2.63-15.82,33.06,33.06,0,0,1,7-11.23,28.31,28.31,0,0,1,10-6.69,31.09,31.09,0,0,1,11.55-2.23q13.78,0,21.14,8.6t7.35,26.19v2a18.08,18.08,0,0,1-.13,2.3H1014q.79,10.63,6.17,16.15t16.81,5.52a45,45,0,0,0,10.83-1.12,37.91,37.91,0,0,0,6.63-2.17l1.71,10.25a36.65,36.65,0,0,1-7.82,2.49,55.82,55.82,0,0,1-12.67,1.31,40.23,40.23,0,0,1-15.42-2.69,28.8,28.8,0,0,1-10.71-7.42,30.16,30.16,0,0,1-6.23-11.22A47.41,47.41,0,0,1,1001.26,758.62Zm46.88-6.69q.12-8.28-4.14-13.59T1032.25,733a16.18,16.18,0,0,0-7.42,1.64,17.53,17.53,0,0,0-5.45,4.27,19.52,19.52,0,0,0-3.48,6,30.11,30.11,0,0,0-1.64,7Z" transform="translate(-61 -89.26)"/><path class="cls-1" d="M1110.9,722.91c1,0,2.25.06,3.61.19s2.69.31,4,.53,2.51.44,3.61.66a21.2,21.2,0,0,1,2.43.59l-2.1,10.63a41.46,41.46,0,0,0-4.79-1.24,42,42,0,0,0-8.6-.73,32,32,0,0,0-6.76.73c-2.24.48-3.7.81-4.4,1v57.38h-12.21V727.24a83.17,83.17,0,0,1,10.76-3A69.11,69.11,0,0,1,1110.9,722.91Z" transform="translate(-61 -89.26)"/><path class="cls-1" d="M1210.81,794.2a37.17,37.17,0,0,1-14.51-2.62,29,29,0,0,1-10.5-7.36,30.43,30.43,0,0,1-6.37-11.22,46.64,46.64,0,0,1-2.1-14.38,43.26,43.26,0,0,1,2.3-14.44,34,34,0,0,1,6.5-11.36,29.09,29.09,0,0,1,10.3-7.48,33.24,33.24,0,0,1,13.59-2.69,54.73,54.73,0,0,1,9.19.78,42.35,42.35,0,0,1,8.8,2.5l-2.76,10.37a29.47,29.47,0,0,0-6.36-2.1,35.72,35.72,0,0,0-7.69-.79q-10.23,0-15.69,6.44t-5.45,18.77a38.56,38.56,0,0,0,1.25,10.11,20.88,20.88,0,0,0,3.94,7.88,17.49,17.49,0,0,0,6.89,5,26.21,26.21,0,0,0,10.25,1.78,38.89,38.89,0,0,0,8.79-.92,31.93,31.93,0,0,0,6.17-2l1.71,10.24a13,13,0,0,1-3,1.25,44.18,44.18,0,0,1-4.46,1.05q-2.5.45-5.32.78A47,47,0,0,1,1210.81,794.2Z" transform="translate(-61 -89.26)"/><path class="cls-1" d="M1308,758.49a43.26,43.26,0,0,1-2.36,14.7,33.78,33.78,0,0,1-6.63,11.3,29.13,29.13,0,0,1-10.18,7.28,33.61,33.61,0,0,1-25.73,0,29.13,29.13,0,0,1-10.18-7.28,33.78,33.78,0,0,1-6.63-11.3,46.77,46.77,0,0,1,0-29.34,33.67,33.67,0,0,1,6.63-11.36,29.13,29.13,0,0,1,10.18-7.28,33.61,33.61,0,0,1,25.73,0,29.13,29.13,0,0,1,10.18,7.28,33.67,33.67,0,0,1,6.63,11.36A43.48,43.48,0,0,1,1308,758.49Zm-12.73,0q0-11.55-5.19-18.32a18.12,18.12,0,0,0-28.23,0q-5.19,6.76-5.19,18.32t5.19,18.32a18.12,18.12,0,0,0,28.23,0Q1295.24,770,1295.24,758.49Z" transform="translate(-61 -89.26)"/><path class="cls-1" d="M1332.39,726.32q4.2-1.05,11.16-2.23a96.36,96.36,0,0,1,16-1.18,34.42,34.42,0,0,1,13.52,2.3,21.17,21.17,0,0,1,8.61,6.43,24.87,24.87,0,0,1,4.52,9.91,57.31,57.31,0,0,1,1.32,12.74v38.34h-12.21V756.91a58,58,0,0,0-.86-10.76,18.18,18.18,0,0,0-2.82-7.22,11.13,11.13,0,0,0-5.25-4,23.1,23.1,0,0,0-8.14-1.25c-1.31,0-2.67.05-4.07.14s-2.74.19-4,.32-2.4.29-3.41.46l-2.17.4v57.64h-12.21Z" transform="translate(-61 -89.26)"/><path class="cls-1" d="M1415,726.32q4.2-1.05,11.16-2.23a96.27,96.27,0,0,1,16-1.18,34.45,34.45,0,0,1,13.52,2.3,21.13,21.13,0,0,1,8.6,6.43,25,25,0,0,1,4.53,9.91,57.93,57.93,0,0,1,1.31,12.74v38.34h-12.21V756.91a58.12,58.12,0,0,0-.85-10.76,18.18,18.18,0,0,0-2.82-7.22,11.21,11.21,0,0,0-5.26-4,23.1,23.1,0,0,0-8.14-1.25c-1.31,0-2.67.05-4.07.14s-2.73.19-4,.32-2.41.29-3.42.46-1.73.31-2.16.4v57.64H1415Z" transform="translate(-61 -89.26)"/><path class="cls-1" d="M1493.76,758.62a43.6,43.6,0,0,1,2.62-15.82,33.06,33.06,0,0,1,7-11.23,28.31,28.31,0,0,1,10-6.69,31.09,31.09,0,0,1,11.55-2.23q13.79,0,21.14,8.6t7.35,26.19v2a18.08,18.08,0,0,1-.13,2.3h-46.74q.79,10.63,6.17,16.15t16.81,5.52a44.93,44.93,0,0,0,10.83-1.12,37.91,37.91,0,0,0,6.63-2.17l1.71,10.25a36.71,36.71,0,0,1-7.81,2.49,55.94,55.94,0,0,1-12.67,1.31,40.25,40.25,0,0,1-15.43-2.69,28.76,28.76,0,0,1-10.7-7.42,30.32,30.32,0,0,1-6.24-11.22A47.41,47.41,0,0,1,1493.76,758.62Zm46.87-6.69q.13-8.28-4.14-13.59T1524.74,733a16.18,16.18,0,0,0-7.42,1.64,17.37,17.37,0,0,0-5.44,4.27,19.32,19.32,0,0,0-3.48,6,29.63,29.63,0,0,0-1.65,7Z" transform="translate(-61 -89.26)"/><path class="cls-1" d="M1607.85,794.2a37.21,37.21,0,0,1-14.51-2.62,29,29,0,0,1-10.5-7.36,30.43,30.43,0,0,1-6.37-11.22,46.64,46.64,0,0,1-2.1-14.38,43.52,43.52,0,0,1,2.3-14.44,34,34,0,0,1,6.5-11.36,29.09,29.09,0,0,1,10.3-7.48,33.27,33.27,0,0,1,13.59-2.69,54.73,54.73,0,0,1,9.19.78,42.35,42.35,0,0,1,8.8,2.5l-2.76,10.37a29.2,29.2,0,0,0-6.37-2.1,35.54,35.54,0,0,0-7.67-.79q-10.24,0-15.7,6.44t-5.44,18.77a38.57,38.57,0,0,0,1.24,10.11,20.88,20.88,0,0,0,3.94,7.88,17.52,17.52,0,0,0,6.9,5,26.16,26.16,0,0,0,10.24,1.78,38.89,38.89,0,0,0,8.79-.92,32.06,32.06,0,0,0,6.18-2l1.7,10.24a12.83,12.83,0,0,1-3,1.25,44.18,44.18,0,0,1-4.46,1.05q-2.5.45-5.32.78A47,47,0,0,1,1607.85,794.2Z" transform="translate(-61 -89.26)"/><path class="cls-1" d="M1657.87,724.35h25.87v10.24h-25.87V766.1a38.13,38.13,0,0,0,.79,8.47,12.78,12.78,0,0,0,2.37,5.26,8.58,8.58,0,0,0,3.94,2.69,17.57,17.57,0,0,0,5.51.78,26,26,0,0,0,8.86-1.24c2.23-.83,3.79-1.42,4.66-1.77l2.37,10.11a46.12,46.12,0,0,1-6.44,2.29,36.5,36.5,0,0,1-10.5,1.38,31.89,31.89,0,0,1-11.49-1.77,16.77,16.77,0,0,1-7.29-5.32,21.18,21.18,0,0,1-3.87-8.73,57.8,57.8,0,0,1-1.12-12V705.31l12.21-2.1Z" transform="translate(-61 -89.26)"/><path class="cls-1" d="M1701.33,758.62A43.59,43.59,0,0,1,1704,742.8a33.06,33.06,0,0,1,7-11.23,28.31,28.31,0,0,1,10-6.69,31.09,31.09,0,0,1,11.55-2.23q13.79,0,21.14,8.6t7.35,26.19v2a18.08,18.08,0,0,1-.13,2.3h-46.74q.79,10.63,6.17,16.15t16.81,5.52a44.93,44.93,0,0,0,10.83-1.12,37.91,37.91,0,0,0,6.63-2.17l1.71,10.25a36.71,36.71,0,0,1-7.81,2.49,56,56,0,0,1-12.68,1.31,40.23,40.23,0,0,1-15.42-2.69,28.76,28.76,0,0,1-10.7-7.42,30.18,30.18,0,0,1-6.24-11.22A47.41,47.41,0,0,1,1701.33,758.62Zm46.88-6.69q.12-8.28-4.14-13.59T1732.32,733a16.18,16.18,0,0,0-7.42,1.64,17.53,17.53,0,0,0-5.45,4.27,19.49,19.49,0,0,0-3.47,6,29.63,29.63,0,0,0-1.65,7Zm-.13-53.44-18.52,18-6.17-5.51,16.81-20.22Z" transform="translate(-61 -89.26)"/><path class="cls-1" d="M783.87,94.1q45.57,0,69.87,16.6T878,162.6q0,18.42-6.49,31.54a54.53,54.53,0,0,1-18.86,21.43q-12.37,8.3-30.18,12.22t-40.74,3.92h-19v73.64h-38V99.23a189.61,189.61,0,0,1,29.43-4.08Q770.29,94.1,783.87,94.1ZM786.59,127q-14.49,0-23.84.91v71.22h18.41q27.45,0,42.25-7.7T838.2,162.3q0-10.26-3.93-17.2a28.22,28.22,0,0,0-10.86-10.87A51.31,51.31,0,0,0,807,128.65,119.17,119.17,0,0,0,786.59,127Z" transform="translate(-61 -89.26)"/><path class="cls-1" d="M976.11,94.1q45.27,0,69.26,16.6t24,50.7q0,42.54-41.95,57.64,5.73,6.94,13,16.9t14.79,21.58q7.53,11.61,14.48,23.84t12.38,24h-42.56q-5.73-10.86-12.37-21.88T1013.68,262q-6.78-10.41-13.43-19.61T987.88,226c-2.82.2-5.24.3-7.24.3H956.49v79.07h-38V99.23A204.52,204.52,0,0,1,948,95.15Q963.73,94.1,976.11,94.1ZM978.82,127q-12.06,0-22.33.91v67.6h16.6A174.37,174.37,0,0,0,997.54,194a51.63,51.63,0,0,0,17.65-5.43A26.4,26.4,0,0,0,1025.9,178q3.63-6.63,3.63-16.9,0-9.65-3.63-16.29a26.9,26.9,0,0,0-10.41-10.57,49.44,49.44,0,0,0-16.14-5.58A118.47,118.47,0,0,0,978.82,127Z" transform="translate(-61 -89.26)"/><path class="cls-1" d="M1264,305.35q-4.23-12.37-8.77-24.44t-8.77-24.75h-88.34q-4.25,12.68-8.63,24.89t-8.62,24.3h-39.54q11.76-33.5,22.31-61.87t20.66-53.72q10.1-25.35,20-48.28t20.5-45.27h36.3q10.56,22.33,20.53,45.27t20.06,48.28q10.13,25.35,20.83,53.72t22.49,61.87Zm-61.71-168.7q-6.94,16-15.85,38.93t-18.56,49.8h68.81q-9.66-26.87-18.71-50.1T1202.3,136.65Z" transform="translate(-61 -89.26)"/><path class="cls-1" d="M1465.61,96.21v32.9h-64.28V305.35H1363V129.11h-64.28V96.21Z" transform="translate(-61 -89.26)"/><path class="cls-1" d="M1500.31,96.21h38V305.35h-38Z" transform="translate(-61 -89.26)"/><path class="cls-1" d="M1687.12,309.88q-23.55,0-42.26-7.25a83.49,83.49,0,0,1-31.68-21.27q-13-14-19.92-34.26t-6.94-46.47q0-26.26,8-46.48a100.39,100.39,0,0,1,21.88-34.25,91.88,91.88,0,0,1,32.59-21.28,110.37,110.37,0,0,1,40.14-7.24,130.2,130.2,0,0,1,23.54,2,167.88,167.88,0,0,1,18.41,4.38,76.06,76.06,0,0,1,13,5.13q5.13,2.72,7.25,3.92l-11.17,31.09q-7.25-4.53-20.67-8.61a100.19,100.19,0,0,0-29.13-4.07,68,68,0,0,0-25.35,4.68,55,55,0,0,0-20.37,14A65.52,65.52,0,0,0,1631,167.43q-4.83,14.19-4.82,32.9a115.82,115.82,0,0,0,3.77,30.48,67.3,67.3,0,0,0,11.62,24,52.79,52.79,0,0,0,19.91,15.69q12.07,5.6,29,5.58,20.2,0,32.89-4.07a131.85,131.85,0,0,0,19.62-7.69l10.26,31.08a52.64,52.64,0,0,1-9.81,4.83,142.1,142.1,0,0,1-14.64,4.68,146.12,146.12,0,0,1-19,3.62A178.77,178.77,0,0,1,1687.12,309.88Z" transform="translate(-61 -89.26)"/><path class="cls-2" d="M783.87,419.4q45.57,0,69.87,16.6T878,487.91q0,18.4-6.49,31.53a54.46,54.46,0,0,1-18.86,21.43q-12.37,8.31-30.18,12.22T781.76,557h-19v73.63h-38V424.53a188.47,188.47,0,0,1,29.43-4.07Q770.29,419.41,783.87,419.4Zm2.72,32.9q-14.49,0-23.84.9v71.22h18.41q27.45,0,42.25-7.69t14.79-29.12q0-10.26-3.93-17.21a28.26,28.26,0,0,0-10.86-10.86A51.07,51.07,0,0,0,807,454,118.17,118.17,0,0,0,786.59,452.3Z" transform="translate(-61 -89.26)"/><path class="cls-2" d="M1107.09,525.93q0,26.87-8,47.38t-21.73,34.26a89.79,89.79,0,0,1-32.14,20.67,110.24,110.24,0,0,1-39.23,6.94,111.48,111.48,0,0,1-39.39-6.94,89.43,89.43,0,0,1-32.29-20.67q-13.74-13.73-21.88-34.26t-8.15-47.38q0-26.85,8.15-47.23a99.42,99.42,0,0,1,22.18-34.25,91.69,91.69,0,0,1,32.45-20.82,112.66,112.66,0,0,1,77.86,0,88.83,88.83,0,0,1,32.14,20.82q13.73,13.89,21.88,34.25T1107.09,525.93Zm-163.27,0A108.05,108.05,0,0,0,948,557.17,68.46,68.46,0,0,0,960.27,581a55.22,55.22,0,0,0,19.46,15.24,59.91,59.91,0,0,0,25.95,5.43,59.24,59.24,0,0,0,25.66-5.43A55.4,55.4,0,0,0,1050.8,581,68.61,68.61,0,0,0,1063,557.17a117.44,117.44,0,0,0,0-62.47,68.52,68.52,0,0,0-12.22-23.84,55.4,55.4,0,0,0-19.46-15.24,59.24,59.24,0,0,0-25.66-5.44,59.92,59.92,0,0,0-25.95,5.44A54.51,54.51,0,0,0,960.27,471,70.27,70.27,0,0,0,948,494.85,106.5,106.5,0,0,0,943.82,525.93Z" transform="translate(-61 -89.26)"/><path class="cls-2" d="M1278.5,445.05q4.83,16.31,10.26,34t11.32,35.3Q1306,532,1311.85,549t11.32,32.14q4.53-16.29,8.75-35.46t8.45-39.84q4.22-20.66,8.3-42.1t7.69-42.25h39.24q-10.56,56.75-23.51,109.1t-28.93,100h-36.59q-23.38-60.95-45.27-133.09-11.17,36.52-22.66,69.42t-23,63.67h-36.28q-16.26-47.67-29.05-100T1127,421.51h40.74q3.62,20.53,7.69,41.95t8.45,42.1q4.38,20.69,8.9,40t9.06,35.61q5.73-15.39,11.62-32.44T1225.09,514q5.73-17.65,11-35.16t9.81-33.8Z" transform="translate(-61 -89.26)"/><path class="cls-2" d="M1427.58,630.65V421.51h134.3v32.3h-96.27v51.6h85.71V537.1h-85.71v61.26h103.51v32.29Z" transform="translate(-61 -89.26)"/><path class="cls-2" d="M1662.07,419.4q45.27,0,69.26,16.6t24,50.7q0,42.56-41.95,57.64,5.73,6.95,13,16.9t14.79,21.58q7.54,11.63,14.49,23.84t12.37,24h-42.55q-5.75-10.86-12.38-21.88t-13.42-21.42q-6.8-10.41-13.43-19.62t-12.38-16.45q-4.23.32-7.24.31h-24.14v79.06h-38V424.53a203.12,203.12,0,0,1,29.58-4.07Q1649.69,419.41,1662.07,419.4Zm2.72,32.9q-12.07,0-22.33.9v67.6h16.59a174.27,174.27,0,0,0,24.45-1.51,51.32,51.32,0,0,0,17.66-5.43,26.44,26.44,0,0,0,10.71-10.56q3.62-6.63,3.62-16.9,0-9.66-3.62-16.3a27.08,27.08,0,0,0-10.41-10.56,49.35,49.35,0,0,0-16.15-5.58A117.46,117.46,0,0,0,1664.79,452.3Z" transform="translate(-61 -89.26)"/><path class="cls-2" d="M299.41,89.26A238.47,238.47,0,0,0,61,319l0,18.52L61.74,782c0,10.11,13.45,13.66,18.44,4.86l134-236.1a237.72,237.72,0,0,0,85.18,15.68C431.18,566.44,538,459.62,538,327.85S431.18,89.26,299.41,89.26Zm33.81,147h19.59v76.43H333.22Z" transform="translate(-61 -89.26)"/><rect class="cls-3" x="184.03" y="146.97" width="19.6" height="76.43"/><rect class="cls-3" x="272.22" y="146.97" width="19.59" height="76.43"/><path class="cls-3" d="M452.76,320.78a25.48,25.48,0,0,1-25.48,25.48,4.35,4.35,0,0,1-.51,0,136.38,136.38,0,0,1-255.7,0,4.26,4.26,0,0,1-.51,0,25.5,25.5,0,1,1,13.66-4,122.68,122.68,0,0,0,229.4,0,25.47,25.47,0,1,1,39.14-21.5Z" transform="translate(-61 -89.26)"/></svg>